<svg xmlns="http://www.w3.org/2000/svg" xmlns:xlink="http://www.w3.org/1999/xlink" width="680" height="248" viewBox="0 0 680 248"><defs><path id="ossza" d="M80 746V498h680v248z"/><path id="osszd" d="M355.7 612.1c0-1.75 1.4-3.15 3.14-3.15h15.92a2.83 2.83 0 1 1 0 5.67h-12.78v6.07h11a2.83 2.83 0 1 1 0 5.67h-11v8.16c0 1.75-1.4 3.14-3.14 3.14a3.13 3.13 0 0 1-3.14-3.14V612.1z"/><path id="ossze" d="M379.91 611.87c0-1.74 1.4-3.14 3.14-3.14 1.75 0 3.15 1.4 3.15 3.14v19.9h11.56a2.83 2.83 0 1 1 0 5.67H383a3.13 3.13 0 0 1-3.14-3.14v-22.43z"/><path id="osszf" d="M402.16 633.44L412.1 611c.7-1.53 1.96-2.49 3.66-2.49h.35c1.7 0 2.92.92 3.62 2.49l9.95 22.43a2.98 2.98 0 0 1-2.66 4.28c-1.49 0-2.45-.88-3.02-2.15l-1.91-4.49h-12.52l-2.01 4.67a3.06 3.06 0 0 1-2.88 1.96 2.89 2.89 0 0 1-2.53-4.27zm17.62-7.9l-3.92-9.38-3.93 9.38z"/><path id="osszg" d="M435.92 614.76h-6.02a2.9 2.9 0 0 1-2.88-2.88 2.9 2.9 0 0 1 2.88-2.88h18.32a2.9 2.9 0 0 1 2.88 2.88 2.9 2.9 0 0 1-2.88 2.88h-6.02v19.81c0 1.75-1.4 3.14-3.14 3.14a3.13 3.13 0 0 1-3.14-3.14v-19.81z"/><path id="osszh" d="M453.42 611.87c0-1.74 1.4-3.14 3.14-3.14 1.75 0 3.14 1.4 3.14 3.14v22.7c0 1.74-1.4 3.13-3.14 3.13a3.13 3.13 0 0 1-3.14-3.14z"/><path id="osszi" d="M463.36 623.3v-.08c0-8.12 6.1-14.75 14.83-14.75 4.28 0 7.16 1.13 9.51 2.88.66.48 1.22 1.4 1.22 2.49 0 1.7-1.4 3.05-3.1 3.05-.87 0-1.43-.3-1.87-.6a9.32 9.32 0 0 0-5.8-2.06c-4.8 0-8.25 3.97-8.25 8.86v.09c0 4.88 3.36 8.94 8.25 8.94 2.66 0 4.4-.83 6.2-2.22.47-.4 1.13-.7 1.87-.7 1.57 0 2.92 1.3 2.92 2.88 0 .96-.48 1.74-1.05 2.22-2.57 2.23-5.58 3.58-10.12 3.58-8.37.09-14.61-6.41-14.61-14.57z"/><path id="osszj" d="M490.63 623.3v-.08c0-8.12 6.37-14.75 15.18-14.75 8.77 0 15.1 6.55 15.1 14.66v.09c0 8.12-6.37 14.75-15.19 14.75-8.76 0-15.09-6.6-15.09-14.66zm23.73 0v-.08c0-4.89-3.58-8.95-8.64-8.95-5.06 0-8.55 3.97-8.55 8.86v.09c0 4.89 3.58 8.94 8.64 8.94 5.06 0 8.55-3.97 8.55-8.85z"/><path id="osszk" d="M524.52 611.96c0-1.75 1.4-3.14 3.14-3.14h.66c1.52 0 2.4.74 3.27 1.83l12.08 15.88v-14.7c0-1.7 1.4-3.1 3.1-3.1 1.7 0 3.1 1.4 3.1 3.1v22.65c0 1.74-1.4 3.14-3.15 3.14h-.21c-1.53 0-2.4-.74-3.28-1.84l-12.52-16.45v15.28c0 1.7-1.4 3.1-3.1 3.1-1.7 0-3.09-1.4-3.09-3.1v-22.65z"/><path id="osszl" d="M312.56 624.36h5.8l5.15-8.6h-16.14l-5.33-8.81h26.79l5.15-8.6h-39.53a4.3 4.3 0 0 0-3.7 6.5l23.33 38.66a4.28 4.28 0 0 0 3.67 2.1c1.48 0 2.88-.79 3.66-2.1l1.35-2.22z"/><path id="osszm" d="M333.49 606.95h10.03l1.27-2.1c.78-1.3.83-2.97.04-4.32a4.26 4.26 0 0 0-3.75-2.18h-2.44z"/><path id="osszn" d="M331.05 611.05l-10.91 18.1 4.97 8.3 15.93-26.4z"/><clipPath id="osszb"><use fill="#fff" xlink:href="#ossza"/></clipPath><clipPath id="osszc"><use fill="#fff" xlink:href="#ossza"/></clipPath></defs><g><g transform="translate(-80 -498)"><use fill="#fff" fill-opacity="0" stroke="#e2e9ed" stroke-miterlimit="50" stroke-width="2" clip-path="url(&quot;#osszb&quot;)" xlink:href="#ossza"/></g><g transform="translate(-80 -498)"><use fill="#fff" fill-opacity="0" stroke="#e2e9ed" stroke-miterlimit="50" stroke-width="2" clip-path="url(&quot;#osszc&quot;)" xlink:href="#ossza"/></g><g transform="translate(-80 -498)"><g><g><g><use fill="#0d2a47" xlink:href="#osszd"/></g><g><use fill="#0d2a47" xlink:href="#ossze"/></g><g><use fill="#0d2a47" xlink:href="#osszf"/></g><g><use fill="#0d2a47" xlink:href="#osszg"/></g></g><g><g><use fill="#69e781" xlink:href="#osszh"/></g><g><use fill="#69e781" xlink:href="#osszi"/></g><g><use fill="#69e781" xlink:href="#osszj"/></g><g><use fill="#69e781" xlink:href="#osszk"/></g></g></g><g><g><use fill="#0d2a47" xlink:href="#osszl"/></g><g><g><use fill="#69e781" xlink:href="#osszm"/></g><g><use fill="#69e781" xlink:href="#osszn"/></g></g></g></g></g></svg>