<?xml version="1.0" encoding="UTF-8" standalone="no"?>
<svg id="svg" version="1.1" xmlns="http://www.w3.org/2000/svg" xmlns:xlink="http://www.w3.org/1999/xlink" width="400" height="67.33980582524272" viewBox="0, 0, 400,67.33980582524272"><g id="svgg"><path id="path0" d="M262.037 16.925 C 249.132 20.187,245.662 36.788,256.181 44.945 C 262.169 49.588,271.691 48.942,276.925 43.537 L 277.847 42.586 276.877 41.668 C 276.344 41.163,275.675 40.539,275.392 40.282 L 274.877 39.813 273.897 40.750 C 270.490 44.005,264.961 45.180,261.460 43.393 C 261.209 43.265,260.963 43.165,260.914 43.171 C 260.865 43.177,260.388 42.949,259.853 42.664 C 253.342 39.193,252.210 28.766,257.772 23.488 C 262.059 19.420,269.275 19.354,273.084 23.349 L 274.049 24.360 275.441 22.975 C 277.071 21.354,277.006 21.563,276.153 20.693 C 272.673 17.142,267.082 15.649,262.037 16.925 M167.750 16.944 C 166.275 17.341,165.443 19.053,165.963 20.623 C 166.686 22.807,170.008 23.079,171.063 21.040 C 172.185 18.869,170.114 16.309,167.750 16.944 M95.000 32.244 L 95.000 47.333 97.000 47.333 L 99.000 47.333 99.000 41.333 L 99.000 35.333 101.125 35.334 L 103.250 35.335 104.375 36.997 C 104.994 37.911,105.500 38.722,105.500 38.798 C 105.500 38.875,105.651 39.100,105.836 39.298 C 106.021 39.497,106.746 40.542,107.446 41.621 C 108.146 42.700,108.923 43.846,109.173 44.167 C 109.423 44.487,109.834 45.121,110.087 45.573 C 110.339 46.026,110.686 46.547,110.856 46.730 C 111.027 46.913,111.167 47.124,111.167 47.198 C 111.167 47.272,112.254 47.333,113.583 47.333 C 114.912 47.333,115.998 47.277,115.995 47.208 C 115.987 47.020,115.335 46.021,114.542 44.981 C 114.152 44.471,113.833 43.972,113.833 43.874 C 113.833 43.775,113.777 43.669,113.708 43.639 C 113.640 43.608,113.174 42.983,112.675 42.250 C 112.175 41.517,111.706 40.892,111.633 40.861 C 111.560 40.831,111.500 40.725,111.500 40.626 C 111.500 40.527,111.103 39.915,110.617 39.265 C 110.131 38.615,109.552 37.783,109.330 37.417 C 109.108 37.050,108.643 36.375,108.297 35.917 C 107.514 34.880,107.490 34.975,108.626 34.603 C 115.994 32.186,116.981 22.009,110.192 18.442 C 107.967 17.272,107.384 17.193,100.839 17.173 L 95.000 17.155 95.000 32.244 M156.861 23.208 L 156.917 29.250 156.034 28.375 C 150.046 22.437,140.114 27.868,140.108 37.083 C 140.103 46.220,150.091 51.602,156.031 45.662 L 157.000 44.693 157.000 46.013 L 157.000 47.333 158.917 47.333 L 160.833 47.333 160.833 32.250 L 160.833 17.167 158.819 17.167 L 156.805 17.167 156.861 23.208 M220.833 32.250 L 220.833 47.333 222.833 47.333 L 224.833 47.333 224.833 32.250 L 224.833 17.167 222.833 17.167 L 220.833 17.167 220.833 32.250 M281.944 17.278 C 281.883 17.339,281.833 24.126,281.833 32.361 L 281.833 47.333 283.821 47.333 L 285.809 47.333 285.872 40.958 C 285.939 34.080,285.927 34.177,286.901 32.583 C 288.501 29.963,291.292 28.958,293.691 30.139 C 296.003 31.277,296.068 31.547,296.133 40.208 L 296.186 47.333 298.263 47.333 L 300.340 47.333 300.328 40.375 C 300.315 33.142,300.220 31.902,299.565 30.417 C 299.404 30.050,299.285 29.694,299.302 29.625 C 299.319 29.556,299.258 29.500,299.167 29.500 C 299.075 29.500,299.000 29.391,299.000 29.258 C 299.000 28.865,297.653 27.576,296.666 27.026 C 293.116 25.046,287.584 26.248,285.901 29.364 C 285.809 29.534,285.770 27.208,285.801 23.405 L 285.852 17.167 283.954 17.167 C 282.910 17.167,282.006 17.217,281.944 17.278 M107.409 21.429 C 110.823 22.756,111.768 27.457,109.108 29.880 C 107.567 31.283,107.063 31.410,102.792 31.470 L 99.000 31.523 99.000 26.245 L 99.000 20.968 102.792 21.038 C 106.026 21.098,106.705 21.156,107.409 21.429 M125.333 26.098 C 122.913 26.539,121.005 27.490,119.741 28.887 C 118.680 30.060,118.658 30.160,119.375 30.577 C 119.673 30.750,120.421 31.221,121.037 31.625 L 122.158 32.358 123.037 31.463 C 126.383 28.060,132.054 29.687,132.605 34.208 C 132.699 34.986,132.683 35.041,132.395 34.923 C 130.505 34.147,130.271 34.107,127.417 34.058 C 123.729 33.994,122.888 34.198,120.667 35.696 C 118.410 37.218,117.428 40.641,118.473 43.339 C 120.532 48.653,129.622 49.754,132.168 44.998 C 132.510 44.358,132.667 44.673,132.667 46.000 L 132.667 47.333 134.583 47.333 L 136.500 47.333 136.497 40.458 C 136.493 31.512,136.295 30.578,133.917 28.282 C 132.245 26.669,128.056 25.603,125.333 26.098 M183.389 26.174 C 174.708 27.891,171.867 39.528,178.658 45.552 C 183.398 49.756,191.339 48.544,194.286 43.167 C 194.890 42.066,194.886 42.005,194.207 41.727 C 193.864 41.587,193.194 41.291,192.719 41.070 C 191.677 40.584,191.135 40.559,190.915 40.984 C 190.824 41.158,190.608 41.575,190.435 41.910 C 189.353 44.001,185.227 45.016,182.853 43.774 C 181.950 43.302,180.333 41.925,180.333 41.628 C 180.333 41.540,180.198 41.269,180.032 41.026 C 178.681 39.046,178.680 35.422,180.029 33.014 C 182.400 28.780,188.208 28.547,190.492 32.594 C 190.901 33.319,191.082 33.503,191.301 33.413 C 191.456 33.349,191.846 33.222,192.167 33.130 C 193.748 32.675,194.667 32.036,194.447 31.543 C 192.628 27.468,188.060 25.250,183.389 26.174 M204.083 26.226 C 202.066 26.660,200.603 27.426,199.332 28.714 C 197.882 30.185,197.872 30.101,199.625 31.147 C 200.427 31.626,201.214 32.106,201.373 32.215 C 201.615 32.380,201.711 32.344,201.952 31.998 C 204.727 28.019,211.388 29.437,211.943 34.126 L 212.044 34.982 210.814 34.549 C 208.243 33.645,203.522 33.834,201.246 34.932 C 196.675 37.137,196.091 43.315,200.167 46.351 C 203.653 48.949,208.529 48.557,211.237 45.462 L 212.000 44.589 212.000 45.961 L 212.000 47.333 213.917 47.333 L 215.833 47.333 215.831 40.375 C 215.829 34.848,215.778 33.203,215.584 32.380 C 215.331 31.309,214.700 29.792,214.466 29.694 C 214.393 29.664,214.333 29.567,214.333 29.478 C 214.333 29.223,212.984 27.929,212.211 27.443 C 210.300 26.242,206.594 25.687,204.083 26.226 M310.597 26.260 C 308.700 26.637,307.109 27.500,305.790 28.867 C 304.463 30.242,304.400 30.054,306.639 31.391 L 308.195 32.320 308.889 31.611 C 312.329 28.095,318.050 29.526,318.456 34.003 L 318.550 35.038 318.168 34.834 C 316.013 33.681,310.493 33.670,308.087 34.815 C 304.842 36.359,303.561 39.188,304.381 43.000 C 305.205 46.831,311.378 49.290,315.344 47.369 C 316.341 46.886,318.167 45.341,318.167 44.981 C 318.167 44.900,318.242 44.833,318.333 44.833 C 318.430 44.833,318.500 45.361,318.500 46.083 L 318.500 47.333 320.517 47.333 L 322.535 47.333 322.453 40.125 C 322.400 35.470,322.303 32.681,322.181 32.250 C 322.076 31.883,321.962 31.471,321.928 31.333 C 320.992 27.558,315.789 25.229,310.597 26.260 M335.833 26.315 C 333.906 26.938,332.816 27.631,331.900 28.816 L 331.333 29.548 331.333 28.102 L 331.333 26.656 329.375 26.703 L 327.417 26.750 327.374 37.042 L 327.331 47.333 329.415 47.333 L 331.500 47.333 331.500 41.114 C 331.500 33.615,331.574 33.213,333.320 31.279 C 335.623 28.726,340.270 29.351,341.326 32.356 C 341.804 33.714,341.805 33.737,341.820 40.792 L 341.833 47.333 343.843 47.333 L 345.852 47.333 345.801 39.708 L 345.750 32.083 345.282 30.759 C 343.963 27.028,339.751 25.047,335.833 26.315 M357.417 26.239 C 351.566 27.717,347.883 35.426,350.283 41.167 C 350.341 41.304,350.399 41.454,350.412 41.500 C 352.292 47.886,361.507 50.194,365.931 45.387 L 366.517 44.750 366.449 46.667 C 366.365 49.000,366.058 50.046,365.118 51.196 C 362.418 54.497,356.511 53.984,354.647 50.286 C 354.452 49.899,354.265 49.553,354.231 49.516 C 354.198 49.478,353.888 49.567,353.543 49.712 C 353.199 49.857,352.374 50.187,351.710 50.446 C 350.350 50.977,350.354 50.969,350.898 52.094 C 354.100 58.707,365.644 58.763,369.225 52.183 C 370.358 50.102,370.389 49.733,370.458 37.620 L 370.520 26.656 368.551 26.703 L 366.583 26.750 366.535 28.003 L 366.487 29.257 365.565 28.363 C 363.585 26.445,360.148 25.549,357.417 26.239 M382.034 26.337 C 373.342 28.614,371.635 41.474,379.351 46.552 C 379.864 46.890,380.393 47.167,380.526 47.167 C 380.658 47.167,380.838 47.238,380.925 47.325 C 381.863 48.261,386.593 48.252,388.974 47.309 C 391.338 46.373,394.333 43.686,394.333 42.500 C 394.333 42.324,391.001 40.611,390.884 40.727 C 390.849 40.763,390.523 41.189,390.161 41.675 C 387.520 45.214,382.424 45.207,379.828 41.660 C 379.153 40.739,378.345 38.211,378.633 37.923 C 378.682 37.874,382.253 37.832,386.569 37.831 C 390.885 37.829,394.520 37.763,394.646 37.683 C 394.870 37.541,394.853 36.777,394.574 34.547 C 393.825 28.550,388.040 24.763,382.034 26.337 M166.667 37.000 L 166.667 47.333 168.667 47.333 L 170.667 47.333 170.667 37.000 L 170.667 26.667 168.667 26.667 L 166.667 26.667 166.667 37.000 M228.500 26.752 C 228.500 26.863,228.888 27.558,229.011 27.667 C 229.062 27.712,229.540 28.387,230.072 29.167 C 231.132 30.718,233.089 33.505,234.458 35.415 C 235.560 36.952,235.640 36.591,233.522 39.642 C 232.527 41.076,231.478 42.587,231.192 43.000 C 230.906 43.413,230.371 44.163,230.002 44.667 C 229.633 45.171,229.281 45.696,229.220 45.833 C 229.158 45.971,228.934 46.315,228.721 46.599 C 228.160 47.346,228.128 47.333,230.607 47.333 C 232.574 47.333,232.910 47.294,233.107 47.042 C 233.321 46.766,234.557 44.891,234.917 44.296 C 235.008 44.145,235.552 43.337,236.125 42.500 C 236.698 41.664,237.167 40.910,237.167 40.823 C 237.167 40.737,237.233 40.667,237.314 40.667 C 237.395 40.667,237.502 40.509,237.553 40.316 C 237.659 39.909,237.981 39.961,238.238 40.427 C 238.336 40.604,238.867 41.426,239.417 42.253 C 239.967 43.079,240.492 43.876,240.583 44.023 C 240.925 44.570,242.331 46.597,242.623 46.963 C 242.915 47.330,243.004 47.342,245.223 47.297 L 247.521 47.250 246.315 45.500 C 245.652 44.538,245.060 43.712,245.001 43.667 C 244.941 43.621,244.542 43.058,244.114 42.417 C 243.361 41.289,242.627 40.234,241.073 38.040 C 240.161 36.754,240.152 36.901,241.224 35.453 C 241.714 34.791,242.333 33.933,242.599 33.545 C 242.866 33.157,243.916 31.657,244.934 30.211 C 245.951 28.766,246.916 27.377,247.078 27.125 L 247.372 26.667 245.027 26.667 L 242.682 26.667 240.716 29.607 C 239.635 31.225,238.612 32.781,238.443 33.066 C 237.957 33.885,237.898 33.894,237.483 33.221 C 237.267 32.870,236.585 31.871,235.969 31.000 C 235.352 30.129,234.413 28.800,233.882 28.046 L 232.917 26.676 230.708 26.671 C 229.494 26.669,228.500 26.705,228.500 26.752 M152.357 29.997 C 158.635 31.957,158.451 42.581,152.111 44.177 C 148.404 45.111,144.724 42.338,144.185 38.204 C 143.477 32.789,147.703 28.545,152.357 29.997 M362.732 30.312 C 364.425 31.146,365.975 33.020,366.291 34.618 C 366.825 37.311,366.324 40.242,365.047 41.903 C 361.884 46.016,355.389 44.623,354.067 39.549 C 352.410 33.188,357.516 27.744,362.732 30.312 M386.795 30.046 C 388.670 30.711,389.996 32.178,390.406 34.042 L 390.506 34.500 384.681 34.500 L 378.857 34.500 378.988 34.040 C 379.954 30.674,383.479 28.870,386.795 30.046 M130.833 37.663 C 132.460 38.204,132.668 38.427,132.483 39.422 C 131.488 44.744,123.500 46.412,122.332 41.542 C 121.569 38.361,126.361 36.175,130.833 37.663 M209.970 37.575 C 212.059 38.153,212.241 38.523,211.469 40.617 C 209.714 45.372,201.667 45.677,201.667 40.989 C 201.667 38.062,205.714 36.398,209.970 37.575 M316.856 37.673 C 318.557 38.244,318.815 38.733,318.251 40.330 C 316.928 44.079,311.897 45.653,309.108 43.190 C 308.533 42.682,308.064 40.971,308.325 40.333 C 308.344 40.287,308.383 40.124,308.413 39.970 C 308.839 37.768,313.422 36.521,316.856 37.673 " stroke="none" fill="#000000" fill-rule="evenodd"></path><path id="path1" d="M36.748 0.751 C 35.251 1.536,34.556 1.888,32.833 2.732 C 32.329 2.979,31.242 3.522,30.417 3.938 C 29.592 4.354,28.542 4.879,28.083 5.105 C 27.625 5.330,26.688 5.798,26.000 6.145 C 25.313 6.492,24.300 6.996,23.750 7.266 C 23.200 7.536,22.113 8.081,21.333 8.477 C 20.554 8.873,19.542 9.382,19.083 9.607 C 18.625 9.833,17.650 10.317,16.917 10.684 C 16.183 11.050,15.133 11.574,14.583 11.849 C 14.033 12.123,12.983 12.648,12.250 13.015 C 11.517 13.383,10.542 13.871,10.083 14.101 C 9.625 14.330,8.688 14.804,8.000 15.154 C 7.313 15.505,6.500 15.888,6.194 16.005 C 5.152 16.406,5.167 16.343,5.167 20.348 L 5.167 24.005 5.708 24.335 C 6.006 24.517,6.330 24.666,6.428 24.666 C 6.525 24.666,7.587 25.192,8.787 25.833 C 9.986 26.475,11.085 27.000,11.228 27.000 C 11.732 27.000,11.833 27.624,11.833 30.713 C 11.833 34.358,11.523 33.868,14.875 35.504 C 16.227 36.164,17.333 36.753,17.333 36.814 C 17.333 36.874,16.677 37.255,15.875 37.659 C 12.433 39.393,11.874 39.673,11.083 40.062 C 10.625 40.287,9.537 40.834,8.667 41.277 C 7.796 41.720,6.651 42.301,6.122 42.567 L 5.160 43.051 5.205 46.734 L 5.250 50.417 8.583 52.116 C 12.895 54.315,11.882 54.433,18.974 50.900 C 22.363 49.212,24.927 48.027,25.012 48.112 C 25.092 48.192,25.179 49.518,25.204 51.058 L 25.250 53.858 27.258 54.887 C 28.362 55.453,29.806 56.154,30.466 56.445 L 31.667 56.973 31.667 60.081 C 31.667 61.854,31.739 63.324,31.835 63.503 C 32.009 63.828,38.529 67.167,38.989 67.167 C 39.132 67.167,44.574 64.512,51.082 61.268 C 57.591 58.024,65.054 54.310,67.667 53.015 C 70.279 51.721,72.510 50.536,72.625 50.382 C 72.788 50.163,72.833 46.502,72.833 33.397 L 72.833 16.691 72.390 16.342 C 72.146 16.150,71.766 15.948,71.547 15.893 C 71.328 15.838,70.256 15.314,69.166 14.730 C 68.076 14.145,67.111 13.667,67.020 13.667 C 66.930 13.667,65.881 13.142,64.690 12.500 C 63.498 11.858,62.447 11.333,62.353 11.333 C 62.260 11.333,61.287 10.846,60.192 10.250 C 59.096 9.654,58.123 9.167,58.028 9.167 C 57.934 9.167,56.881 8.642,55.690 8.000 C 54.498 7.358,53.447 6.833,53.353 6.833 C 53.260 6.833,52.287 6.346,51.192 5.750 C 50.096 5.154,49.116 4.667,49.014 4.667 C 48.912 4.667,47.855 4.142,46.667 3.500 C 45.478 2.858,44.434 2.333,44.346 2.333 C 44.259 2.333,43.264 1.833,42.135 1.221 C 39.342 -0.294,38.827 -0.339,36.748 0.751 M39.958 1.742 C 40.715 2.133,42.260 2.910,44.417 3.984 C 44.967 4.258,46.017 4.789,46.750 5.163 C 47.483 5.538,48.496 6.040,49.000 6.279 C 49.504 6.518,50.517 7.020,51.250 7.395 C 51.983 7.770,52.996 8.281,53.500 8.530 C 54.004 8.779,55.017 9.283,55.750 9.650 C 56.483 10.016,57.458 10.500,57.917 10.726 C 58.375 10.951,59.387 11.460,60.167 11.856 C 60.946 12.253,62.033 12.796,62.583 13.063 C 63.133 13.330,63.808 13.661,64.083 13.799 C 68.755 16.134,70.166 16.869,70.165 16.967 C 70.164 17.071,69.701 17.319,67.250 18.529 C 66.577 18.861,63.815 20.238,62.583 20.857 C 62.217 21.041,61.167 21.566,60.250 22.025 C 59.333 22.483,58.358 22.973,58.083 23.114 C 57.808 23.255,53.413 25.463,48.316 28.021 L 39.049 32.672 36.596 31.506 C 35.247 30.864,34.183 30.275,34.232 30.196 C 34.280 30.118,39.779 27.337,46.452 24.016 C 53.124 20.696,58.902 17.817,59.292 17.618 C 59.681 17.420,60.000 17.137,60.000 16.990 C 60.000 16.709,39.519 6.324,38.977 6.330 C 38.827 6.332,32.799 9.291,25.583 12.906 L 12.461 19.479 11.105 18.792 C 10.360 18.415,9.352 17.914,8.866 17.678 C 7.378 16.958,7.245 17.107,11.000 15.268 C 11.504 15.021,12.517 14.515,13.250 14.144 C 13.983 13.773,14.958 13.285,15.417 13.061 C 15.875 12.836,16.925 12.311,17.750 11.895 C 18.575 11.479,19.625 10.954,20.083 10.729 C 20.542 10.503,21.517 10.015,22.250 9.644 C 22.983 9.273,23.958 8.785,24.417 8.561 C 24.875 8.336,25.925 7.811,26.750 7.395 C 27.575 6.979,28.625 6.453,29.083 6.227 C 29.542 6.001,30.517 5.516,31.250 5.150 C 31.983 4.783,32.996 4.279,33.500 4.030 C 34.613 3.480,36.975 2.281,38.000 1.745 C 38.949 1.250,39.004 1.250,39.958 1.742 M38.333 10.734 L 38.333 13.135 29.958 17.319 C 21.510 21.539,19.799 22.400,18.583 23.042 C 18.217 23.236,16.904 23.902,15.667 24.523 L 13.417 25.651 13.369 23.201 C 13.319 20.602,13.451 20.167,14.289 20.167 C 14.428 20.167,15.445 19.679,16.550 19.083 C 17.655 18.487,18.632 18.000,18.721 18.000 C 18.810 18.000,19.490 17.673,20.233 17.274 C 21.999 16.323,22.414 16.115,27.917 13.421 C 30.483 12.164,33.333 10.751,34.250 10.282 C 36.762 8.994,38.069 8.354,38.208 8.343 C 38.277 8.338,38.333 9.414,38.333 10.734 M47.333 12.024 C 51.413 14.054,55.291 15.985,55.951 16.315 C 56.612 16.644,57.100 16.960,57.035 17.018 C 56.970 17.075,56.467 17.345,55.917 17.620 C 55.367 17.894,53.018 19.067,50.698 20.226 C 48.378 21.385,46.447 22.333,46.407 22.333 C 46.366 22.333,46.332 21.077,46.331 19.542 C 46.328 16.280,46.441 16.554,44.750 15.725 C 44.017 15.365,42.573 14.635,41.542 14.102 L 39.667 13.133 39.667 10.733 C 39.667 9.413,39.723 8.333,39.792 8.332 C 39.860 8.332,43.254 9.993,47.333 12.024 M41.578 15.801 C 43.285 16.648,43.806 16.978,43.639 17.104 C 43.256 17.394,19.250 29.333,19.051 29.333 C 18.946 29.333,17.844 28.785,16.601 28.114 L 14.341 26.894 16.379 25.822 C 17.500 25.232,18.511 24.726,18.626 24.696 C 18.741 24.666,20.691 23.697,22.959 22.543 C 25.227 21.388,27.261 20.363,27.478 20.263 C 27.695 20.164,30.310 18.865,33.290 17.375 C 39.613 14.213,38.722 14.383,41.578 15.801 M265.295 16.454 C 265.594 16.491,266.044 16.490,266.295 16.452 C 266.545 16.414,266.300 16.384,265.750 16.385 C 265.200 16.386,264.995 16.417,265.295 16.454 M170.478 17.645 C 171.132 18.298,171.248 18.601,171.388 20.000 C 171.426 20.375,171.456 20.250,171.473 19.650 C 171.502 18.647,170.938 17.579,170.159 17.163 C 169.966 17.059,170.110 17.276,170.478 17.645 M160.833 32.245 L 160.833 47.323 158.875 47.376 L 156.917 47.428 158.958 47.464 L 161.000 47.500 161.000 32.333 C 161.000 23.992,160.962 17.167,160.917 17.167 C 160.871 17.167,160.833 23.952,160.833 32.245 M224.833 32.245 L 224.833 47.323 222.792 47.375 L 220.750 47.428 222.875 47.464 L 225.000 47.500 225.000 32.333 C 225.000 23.992,224.963 17.167,224.917 17.167 C 224.871 17.167,224.833 23.952,224.833 32.245 M259.167 17.750 C 258.938 17.881,258.825 17.988,258.917 17.988 C 259.008 17.988,259.271 17.881,259.500 17.750 C 259.729 17.619,259.842 17.512,259.750 17.512 C 259.658 17.512,259.396 17.619,259.167 17.750 M45.000 20.488 C 45.000 22.303,44.947 22.863,44.756 23.053 C 44.562 23.247,37.365 26.926,29.167 31.023 C 28.571 31.321,27.708 31.753,27.250 31.983 C 26.792 32.213,24.971 33.125,23.204 34.010 L 19.992 35.619 20.037 33.101 L 20.083 30.583 31.684 24.750 C 38.065 21.542,43.577 18.751,43.934 18.549 C 45.013 17.938,45.000 17.915,45.000 20.488 M71.201 49.435 C 71.173 49.536,66.147 52.115,60.033 55.165 C 46.594 61.869,46.263 62.036,45.327 62.571 C 44.918 62.805,44.493 62.997,44.383 62.998 C 44.273 62.999,43.287 63.487,42.192 64.083 C 41.096 64.679,40.080 65.167,39.933 65.167 C 39.583 65.167,39.528 60.652,39.875 60.374 C 39.990 60.282,41.096 59.708,42.333 59.098 C 43.571 58.488,44.808 57.871,45.083 57.728 C 45.358 57.585,46.258 57.134,47.083 56.727 C 47.908 56.320,48.883 55.834,49.250 55.647 C 51.997 54.249,61.277 49.600,61.658 49.431 C 62.806 48.922,65.933 47.258,66.039 47.099 C 66.373 46.602,66.179 26.000,65.841 26.000 C 65.594 26.000,59.326 29.077,55.083 31.281 C 54.900 31.376,54.262 31.687,53.667 31.972 C 53.071 32.256,52.021 32.780,51.333 33.136 C 50.646 33.492,48.808 34.411,47.250 35.178 C 45.692 35.945,43.704 36.949,42.833 37.410 C 41.962 37.871,41.025 38.332,40.750 38.435 C 40.475 38.538,40.117 38.678,39.954 38.747 C 39.676 38.864,39.660 38.715,39.704 36.406 L 39.750 33.940 48.250 29.665 C 52.925 27.314,57.050 25.233,57.417 25.040 C 57.783 24.847,61.008 23.241,64.583 21.470 L 71.083 18.250 71.168 33.750 C 71.215 42.275,71.230 49.333,71.201 49.435 M257.206 18.754 C 256.726 19.078,256.333 19.381,256.333 19.429 C 256.333 19.477,256.652 19.299,257.042 19.034 C 257.431 18.770,257.900 18.468,258.083 18.365 C 258.267 18.261,258.341 18.175,258.248 18.172 C 258.155 18.169,257.686 18.431,257.206 18.754 M273.667 18.552 C 273.667 18.593,273.942 18.837,274.279 19.094 C 274.615 19.350,274.838 19.475,274.773 19.371 C 274.642 19.158,273.667 18.436,273.667 18.552 M112.258 20.000 C 112.807 20.596,113.389 21.271,113.552 21.500 C 113.837 21.901,113.837 21.896,113.556 21.377 C 113.395 21.080,112.813 20.405,112.262 19.877 L 111.260 18.917 112.258 20.000 M254.487 20.958 C 253.680 21.827,253.267 22.333,253.366 22.333 C 253.412 22.333,253.841 21.883,254.320 21.333 C 255.285 20.223,255.391 19.985,254.487 20.958 M276.000 20.424 C 276.000 20.474,276.198 20.718,276.440 20.966 L 276.880 21.417 276.512 20.875 C 276.164 20.363,276.000 20.219,276.000 20.424 M99.074 26.250 C 99.074 29.183,99.097 30.360,99.125 28.865 C 99.152 27.369,99.152 24.969,99.125 23.531 C 99.097 22.093,99.074 23.317,99.074 26.250 M275.828 22.625 L 274.917 23.583 275.875 22.672 C 276.765 21.826,276.910 21.667,276.786 21.667 C 276.760 21.667,276.329 22.098,275.828 22.625 M167.240 22.238 C 167.418 22.382,167.718 22.494,167.907 22.486 C 168.182 22.474,168.162 22.445,167.805 22.337 C 167.560 22.263,167.260 22.151,167.138 22.089 C 167.016 22.026,167.062 22.093,167.240 22.238 M169.250 22.333 C 168.789 22.451,168.782 22.462,169.167 22.478 C 169.396 22.487,169.696 22.422,169.833 22.333 C 170.117 22.150,169.970 22.150,169.250 22.333 M271.681 22.217 C 271.719 22.244,272.237 22.711,272.833 23.253 L 273.917 24.239 272.922 23.203 C 272.375 22.633,271.856 22.167,271.769 22.167 C 271.682 22.167,271.642 22.189,271.681 22.217 M257.328 23.958 L 256.417 24.917 257.375 24.006 C 258.265 23.159,258.410 23.000,258.286 23.000 C 258.260 23.000,257.829 23.431,257.328 23.958 M109.840 23.625 C 109.850 23.792,110.484 24.946,110.493 24.812 C 110.505 24.640,110.002 23.500,109.914 23.500 C 109.870 23.500,109.836 23.556,109.840 23.625 M251.694 24.757 C 251.414 25.370,251.468 25.501,251.770 24.944 C 251.911 24.683,251.995 24.439,251.957 24.401 C 251.919 24.363,251.800 24.523,251.694 24.757 M255.661 26.125 C 255.309 26.831,255.308 26.833,255.403 26.833 C 255.527 26.833,256.040 25.817,255.957 25.735 C 255.920 25.698,255.787 25.873,255.661 26.125 M126.792 25.951 C 126.998 25.991,127.335 25.991,127.542 25.951 C 127.748 25.911,127.579 25.879,127.167 25.879 C 126.754 25.879,126.585 25.911,126.792 25.951 M149.627 25.951 C 149.834 25.991,150.134 25.990,150.294 25.948 C 150.453 25.906,150.283 25.874,149.917 25.875 C 149.550 25.877,149.420 25.911,149.627 25.951 M185.294 25.951 C 185.501 25.991,185.801 25.990,185.960 25.948 C 186.120 25.906,185.950 25.874,185.583 25.875 C 185.217 25.877,185.086 25.911,185.294 25.951 M206.125 25.951 C 206.331 25.991,206.669 25.991,206.875 25.951 C 207.081 25.911,206.912 25.879,206.500 25.879 C 206.088 25.879,205.919 25.911,206.125 25.951 M292.127 25.951 C 292.334 25.991,292.634 25.990,292.794 25.948 C 292.953 25.906,292.783 25.874,292.417 25.875 C 292.050 25.877,291.920 25.911,292.127 25.951 M312.792 25.951 C 312.998 25.991,313.335 25.991,313.542 25.951 C 313.748 25.911,313.579 25.879,313.167 25.879 C 312.754 25.879,312.585 25.911,312.792 25.951 M337.708 25.948 C 337.869 25.990,338.131 25.990,338.292 25.948 C 338.452 25.906,338.321 25.872,338.000 25.872 C 337.679 25.872,337.548 25.906,337.708 25.948 M359.294 25.951 C 359.501 25.991,359.801 25.990,359.960 25.948 C 360.120 25.906,359.950 25.874,359.583 25.875 C 359.217 25.877,359.086 25.911,359.294 25.951 M384.292 25.951 C 384.498 25.991,384.835 25.991,385.042 25.951 C 385.248 25.911,385.079 25.879,384.667 25.879 C 384.254 25.879,384.085 25.911,384.292 25.951 M166.540 37.042 L 166.500 47.500 168.625 47.464 L 170.750 47.428 168.710 47.376 L 166.669 47.323 166.625 36.953 L 166.581 26.583 166.540 37.042 M331.366 28.069 C 331.348 28.887,331.355 29.524,331.381 29.486 C 331.407 29.448,331.713 29.042,332.061 28.583 L 332.694 27.750 332.105 28.394 L 331.515 29.038 331.457 27.811 L 331.400 26.583 331.366 28.069 M287.875 27.261 C 287.485 27.495,287.167 27.725,287.167 27.773 C 287.167 27.863,288.291 27.224,288.575 26.973 C 288.861 26.720,288.595 26.830,287.875 27.261 M144.692 27.501 C 144.311 27.777,144.000 28.043,144.000 28.093 C 144.000 28.171,144.939 27.532,145.408 27.134 C 145.803 26.800,145.315 27.049,144.692 27.501 M190.333 27.075 C 190.333 27.121,190.558 27.274,190.833 27.417 C 191.108 27.559,191.333 27.638,191.333 27.592 C 191.333 27.546,191.108 27.392,190.833 27.250 C 190.558 27.108,190.333 27.029,190.333 27.075 M364.500 27.386 C 364.500 27.427,364.775 27.670,365.112 27.927 C 365.448 28.184,365.671 28.309,365.607 28.205 C 365.475 27.991,364.500 27.270,364.500 27.386 M319.917 28.333 C 320.368 28.792,320.775 29.167,320.821 29.167 C 320.867 29.167,320.535 28.792,320.083 28.333 C 319.632 27.875,319.225 27.500,319.179 27.500 C 319.133 27.500,319.465 27.875,319.917 28.333 M191.505 27.792 C 191.508 27.860,191.714 28.061,191.964 28.237 L 192.417 28.557 192.013 28.112 C 191.588 27.644,191.497 27.586,191.505 27.792 M229.000 27.734 C 229.000 27.907,229.968 29.294,230.181 29.426 C 230.316 29.509,229.694 28.548,229.051 27.681 C 229.023 27.642,229.000 27.666,229.000 27.734 M246.244 28.375 C 245.987 28.765,245.883 28.995,246.013 28.888 C 246.264 28.681,246.902 27.667,246.782 27.667 C 246.743 27.667,246.501 27.985,246.244 28.375 M64.628 41.184 L 64.583 45.511 62.042 44.222 L 59.500 42.934 59.500 39.654 L 59.500 36.375 56.669 34.952 L 53.839 33.529 54.544 33.122 C 54.932 32.898,55.775 32.457,56.417 32.142 C 58.367 31.184,59.517 30.610,61.000 29.858 C 61.779 29.463,62.904 28.897,63.500 28.602 L 64.583 28.064 64.628 32.460 C 64.652 34.878,64.652 38.804,64.628 41.184 M119.816 28.625 C 119.258 29.222,118.576 30.098,118.941 29.750 C 119.338 29.371,120.537 28.000,120.472 28.000 C 120.433 28.000,120.138 28.281,119.816 28.625 M198.850 29.000 C 198.463 29.458,198.173 29.833,198.206 29.833 C 198.238 29.833,198.618 29.458,199.051 29.000 C 199.484 28.542,199.773 28.167,199.695 28.167 C 199.616 28.167,199.236 28.542,198.850 29.000 M177.575 29.375 L 176.917 30.083 177.625 29.425 C 178.015 29.062,178.333 28.743,178.333 28.716 C 178.333 28.590,178.188 28.716,177.575 29.375 M192.667 28.885 C 192.667 28.914,192.910 29.158,193.208 29.427 L 193.750 29.917 193.260 29.375 C 192.804 28.870,192.667 28.757,192.667 28.885 M142.387 29.708 C 142.202 29.915,141.990 30.196,141.917 30.333 C 141.776 30.599,141.815 30.562,142.490 29.792 C 142.711 29.540,142.854 29.333,142.808 29.333 C 142.762 29.333,142.573 29.502,142.387 29.708 M392.666 29.792 C 392.884 30.090,393.089 30.333,393.121 30.333 C 393.247 30.333,392.834 29.708,392.561 29.486 C 392.381 29.340,392.421 29.456,392.666 29.792 M193.917 30.500 C 194.059 30.775,194.213 31.000,194.259 31.000 C 194.304 31.000,194.226 30.775,194.083 30.500 C 193.941 30.225,193.787 30.000,193.741 30.000 C 193.696 30.000,193.774 30.225,193.917 30.500 M130.738 30.957 C 131.006 31.254,131.262 31.460,131.307 31.415 C 131.352 31.370,131.358 31.315,131.319 31.292 C 131.281 31.269,131.025 31.063,130.750 30.834 L 130.250 30.418 130.738 30.957 M119.750 30.920 C 119.933 31.069,120.233 31.265,120.417 31.355 L 120.750 31.518 120.417 31.247 C 120.233 31.098,119.933 30.902,119.750 30.812 L 119.417 30.648 119.750 30.920 M181.583 31.098 L 181.083 31.528 181.625 31.169 C 181.923 30.972,182.167 30.778,182.167 30.739 C 182.167 30.614,182.096 30.657,181.583 31.098 M202.750 31.088 C 202.475 31.314,202.331 31.499,202.429 31.499 C 202.528 31.500,202.785 31.313,203.000 31.083 C 203.494 30.558,203.395 30.560,202.750 31.088 M340.519 31.075 C 340.667 31.263,340.871 31.567,340.972 31.750 C 341.074 31.933,341.159 31.991,341.162 31.878 C 341.164 31.764,340.960 31.461,340.708 31.203 C 340.456 30.945,340.371 30.888,340.519 31.075 M123.073 31.375 L 122.583 31.917 123.125 31.427 C 123.423 31.158,123.667 30.914,123.667 30.885 C 123.667 30.757,123.529 30.870,123.073 31.375 M356.167 31.167 C 355.938 31.346,355.832 31.494,355.933 31.496 C 356.033 31.498,356.251 31.350,356.417 31.167 C 356.797 30.747,356.704 30.747,356.167 31.167 M146.073 31.708 L 145.583 32.250 146.125 31.760 C 146.423 31.491,146.667 31.248,146.667 31.219 C 146.667 31.090,146.529 31.203,146.073 31.708 M31.833 33.472 C 31.833 35.919,31.947 35.843,29.907 34.749 C 28.968 34.245,28.085 33.833,27.943 33.833 C 27.238 33.833,27.671 33.437,29.374 32.521 C 31.959 31.132,31.833 31.083,31.833 33.472 M239.000 32.000 C 238.804 32.275,238.681 32.500,238.727 32.500 C 238.773 32.500,238.971 32.275,239.167 32.000 C 239.362 31.725,239.485 31.500,239.439 31.500 C 239.394 31.500,239.196 31.725,239.000 32.000 M375.185 32.185 C 375.083 32.480,375.028 32.750,375.063 32.786 C 375.099 32.821,375.212 32.609,375.315 32.315 C 375.417 32.020,375.472 31.750,375.437 31.714 C 375.401 31.679,375.288 31.891,375.185 32.185 M111.833 32.713 C 111.512 33.008,111.062 33.385,110.833 33.549 C 110.431 33.837,110.436 33.837,110.963 33.552 C 111.438 33.294,112.695 32.159,112.491 32.171 C 112.450 32.174,112.154 32.417,111.833 32.713 M350.186 32.850 C 350.084 33.143,350.005 33.466,350.012 33.567 C 350.018 33.667,350.131 33.457,350.262 33.098 C 350.394 32.739,350.472 32.417,350.437 32.381 C 350.401 32.345,350.288 32.556,350.186 32.850 M242.968 32.958 C 242.674 33.300,242.454 33.667,242.542 33.667 C 242.576 33.667,242.770 33.442,242.974 33.167 C 243.375 32.623,243.372 32.488,242.968 32.958 M238.105 33.375 L 237.806 33.917 238.149 33.500 C 238.454 33.130,238.589 32.833,238.453 32.833 C 238.427 32.833,238.270 33.077,238.105 33.375 M379.194 33.424 C 379.087 33.658,379.003 33.939,379.007 34.050 C 379.010 34.160,379.124 33.995,379.259 33.683 C 379.544 33.027,379.484 32.788,379.194 33.424 M191.457 33.347 C 191.296 33.441,191.090 33.472,190.999 33.416 C 190.908 33.360,190.833 33.393,190.833 33.490 C 190.833 33.587,190.927 33.664,191.042 33.661 C 191.294 33.654,192.154 33.179,191.917 33.178 C 191.825 33.177,191.618 33.254,191.457 33.347 M365.924 33.875 C 365.986 34.081,366.106 34.323,366.190 34.413 C 366.274 34.502,366.258 34.334,366.155 34.038 C 365.944 33.432,365.749 33.295,365.924 33.875 M124.776 33.958 C 124.733 34.027,125.734 34.083,127.000 34.083 C 128.266 34.083,129.267 34.027,129.224 33.958 C 129.182 33.890,128.181 33.833,127.000 33.833 C 125.819 33.833,124.818 33.890,124.776 33.958 M204.750 33.939 C 205.888 34.058,208.789 34.074,208.610 33.961 C 208.504 33.894,207.479 33.849,206.333 33.863 C 205.188 33.876,204.475 33.910,204.750 33.939 M312.049 33.957 C 312.671 33.989,313.646 33.989,314.215 33.957 C 314.784 33.924,314.275 33.898,313.083 33.898 C 311.892 33.898,311.426 33.925,312.049 33.957 M354.114 34.064 C 354.051 34.227,354.005 34.486,354.011 34.639 C 354.018 34.823,354.075 34.781,354.182 34.514 C 354.270 34.293,354.317 34.034,354.285 33.939 C 354.254 33.844,354.177 33.900,354.114 34.064 M132.459 34.583 C 132.415 34.813,132.444 35.000,132.523 35.000 C 132.602 35.000,132.667 34.813,132.667 34.583 C 132.667 34.354,132.638 34.167,132.603 34.167 C 132.568 34.167,132.503 34.354,132.459 34.583 M341.747 40.833 L 341.750 47.417 343.750 47.424 L 345.750 47.432 343.794 47.378 L 341.837 47.323 341.791 40.787 L 341.744 34.250 341.747 40.833 M384.583 34.333 L 378.750 34.423 384.625 34.462 C 388.456 34.487,390.500 34.442,390.500 34.333 C 390.500 34.242,390.481 34.184,390.458 34.205 C 390.435 34.226,387.792 34.284,384.583 34.333 M54.688 35.556 L 57.218 36.779 55.757 37.556 C 54.953 37.984,54.222 38.333,54.131 38.333 C 54.041 38.333,53.071 38.821,51.975 39.417 C 50.880 40.012,49.902 40.500,49.802 40.500 C 49.702 40.500,48.650 41.025,47.465 41.667 C 46.280 42.308,45.231 42.833,45.135 42.833 C 45.038 42.833,44.055 43.321,42.950 43.917 C 41.845 44.512,40.872 45.000,40.788 45.000 C 40.704 45.000,39.653 45.525,38.453 46.167 C 37.254 46.808,36.206 47.333,36.125 47.333 C 36.044 47.333,35.172 47.761,34.186 48.285 L 32.395 49.236 31.018 48.519 C 29.284 47.618,28.909 47.434,28.084 47.083 L 27.418 46.799 28.084 46.452 C 28.732 46.115,52.046 34.373,52.121 34.346 C 52.141 34.339,53.296 34.884,54.688 35.556 M25.167 36.843 C 25.167 37.938,25.101 38.833,25.021 38.833 C 24.780 38.833,23.327 38.164,22.017 37.449 L 20.785 36.776 22.851 35.757 C 25.356 34.520,25.167 34.432,25.167 36.843 M234.330 35.495 C 234.524 35.767,234.767 36.043,234.871 36.107 C 234.975 36.171,234.850 35.948,234.594 35.612 C 234.037 34.881,233.827 34.788,234.330 35.495 M99.000 41.328 L 99.000 47.323 96.958 47.375 L 94.917 47.428 97.042 47.464 L 99.167 47.500 99.167 41.417 C 99.167 38.071,99.129 35.333,99.083 35.333 C 99.037 35.333,99.000 38.031,99.000 41.328 M305.573 36.542 L 305.083 37.083 305.625 36.594 C 306.130 36.138,306.243 36.000,306.115 36.000 C 306.086 36.000,305.842 36.244,305.573 36.542 M119.355 36.697 C 119.138 36.964,118.994 37.216,119.034 37.256 C 119.074 37.296,119.277 37.099,119.485 36.818 C 119.973 36.158,119.871 36.062,119.355 36.697 M127.129 37.289 C 127.521 37.324,128.121 37.324,128.463 37.288 C 128.804 37.252,128.483 37.223,127.750 37.224 C 127.017 37.224,126.737 37.254,127.129 37.289 M206.542 37.288 C 206.885 37.324,207.448 37.324,207.792 37.288 C 208.135 37.252,207.854 37.223,207.167 37.223 C 206.479 37.223,206.198 37.252,206.542 37.288 M313.042 37.288 C 313.385 37.324,313.948 37.324,314.292 37.288 C 314.635 37.252,314.354 37.223,313.667 37.223 C 312.979 37.223,312.698 37.252,313.042 37.288 M124.500 37.833 C 123.735 38.252,123.938 38.254,124.857 37.837 C 125.256 37.656,125.471 37.509,125.333 37.511 C 125.196 37.512,124.821 37.658,124.500 37.833 M130.856 37.745 C 130.996 37.885,132.167 38.340,132.167 38.254 C 132.167 38.209,131.895 38.058,131.563 37.919 C 130.948 37.662,130.716 37.605,130.856 37.745 M210.333 37.786 C 210.471 37.837,210.790 37.983,211.042 38.110 C 211.294 38.238,211.500 38.304,211.500 38.259 C 211.500 38.128,210.541 37.665,210.300 37.680 C 210.154 37.689,210.165 37.724,210.333 37.786 M386.673 37.792 C 382.323 37.816,378.708 37.892,378.640 37.960 C 378.572 38.028,382.129 38.063,386.545 38.038 C 391.507 38.011,394.635 37.931,394.737 37.830 C 394.834 37.733,394.836 37.683,394.742 37.707 C 394.655 37.729,391.024 37.767,386.673 37.792 M18.500 40.138 L 18.500 42.276 16.426 41.263 C 15.286 40.706,14.348 40.209,14.343 40.159 C 14.334 40.072,18.244 38.000,18.417 38.000 C 18.463 38.000,18.500 38.962,18.500 40.138 M58.167 40.404 L 58.167 42.809 57.292 43.299 C 56.438 43.777,54.929 44.545,53.250 45.356 C 52.792 45.578,51.742 46.108,50.917 46.534 C 50.092 46.961,47.317 48.331,44.750 49.580 C 42.183 50.829,39.783 52.001,39.417 52.185 C 39.050 52.369,38.075 52.859,37.250 53.273 C 36.425 53.687,35.175 54.320,34.472 54.680 C 33.769 55.039,33.150 55.333,33.097 55.333 C 32.954 55.333,32.984 50.782,33.128 50.568 C 33.195 50.468,35.500 49.260,38.250 47.884 C 44.299 44.856,44.035 44.987,45.167 44.434 C 45.671 44.187,46.646 43.697,47.333 43.344 C 48.021 42.992,49.931 42.039,51.578 41.227 C 53.226 40.415,55.239 39.398,56.054 38.967 C 56.868 38.537,57.657 38.152,57.809 38.112 C 57.960 38.072,58.102 38.030,58.125 38.019 C 58.148 38.009,58.167 39.082,58.167 40.404 M202.917 38.422 C 202.265 38.956,202.440 38.953,203.167 38.417 C 203.477 38.188,203.661 38.003,203.574 38.006 C 203.487 38.009,203.192 38.196,202.917 38.422 M35.289 39.121 C 36.319 39.650,37.158 40.121,37.153 40.167 C 37.149 40.212,36.212 40.716,35.073 41.286 L 33.000 42.322 33.000 40.244 C 33.000 37.773,32.830 37.856,35.289 39.121 M366.118 39.526 C 366.054 39.770,365.959 40.107,365.907 40.276 C 365.855 40.445,365.934 40.373,366.083 40.115 C 366.232 39.858,366.327 39.520,366.294 39.365 C 366.252 39.167,366.200 39.215,366.118 39.526 M106.001 39.597 C 106.001 39.681,106.195 39.975,106.431 40.250 L 106.861 40.750 106.484 40.167 C 106.002 39.418,106.000 39.416,106.001 39.597 M349.845 39.847 C 349.851 40.069,349.925 40.400,350.008 40.583 C 350.113 40.816,350.128 40.715,350.057 40.250 C 349.939 39.476,349.828 39.265,349.845 39.847 M252.012 40.458 C 252.217 40.802,252.493 41.196,252.626 41.333 C 252.758 41.471,252.628 41.190,252.336 40.708 C 252.044 40.227,251.768 39.833,251.722 39.833 C 251.677 39.833,251.807 40.115,252.012 40.458 M275.639 40.482 C 276.037 40.859,276.393 41.167,276.431 41.167 C 276.608 41.167,276.441 40.994,275.708 40.419 L 274.917 39.798 275.639 40.482 M237.611 40.111 C 237.550 40.172,237.501 40.303,237.503 40.403 C 237.504 40.502,237.576 40.471,237.663 40.334 C 237.798 40.120,237.856 40.132,238.071 40.417 C 238.210 40.600,238.325 40.671,238.328 40.575 C 238.339 40.212,237.836 39.886,237.611 40.111 M155.824 41.124 C 155.448 41.876,155.453 41.950,155.842 41.368 C 156.043 41.066,156.174 40.785,156.131 40.742 C 156.089 40.700,155.951 40.872,155.824 41.124 M257.333 40.727 C 257.333 40.773,257.558 40.971,257.833 41.167 C 258.108 41.362,258.333 41.485,258.333 41.439 C 258.333 41.394,258.108 41.196,257.833 41.000 C 257.558 40.804,257.333 40.681,257.333 40.727 M211.064 41.208 C 210.490 42.182,210.452 42.265,210.745 41.917 C 211.083 41.513,211.375 41.000,211.266 41.000 C 211.222 41.000,211.131 41.094,211.064 41.208 M375.020 41.167 C 375.017 41.304,375.118 41.642,375.244 41.917 C 375.539 42.560,375.543 42.261,375.250 41.500 C 375.126 41.179,375.023 41.029,375.020 41.167 M11.833 43.431 C 11.833 44.584,11.777 45.500,11.708 45.467 C 11.640 45.433,11.358 45.309,11.083 45.190 C 10.145 44.785,7.812 43.584,7.733 43.465 C 7.670 43.369,11.268 41.466,11.708 41.363 C 11.777 41.347,11.833 42.277,11.833 43.431 M29.333 42.721 C 30.882 43.366,30.746 43.558,27.792 44.903 L 26.500 45.492 26.500 43.403 L 26.500 41.315 27.625 41.897 C 28.244 42.217,29.012 42.588,29.333 42.721 M190.333 41.786 C 190.333 41.882,190.015 42.284,189.625 42.680 C 189.047 43.267,189.012 43.333,189.436 43.037 C 190.001 42.644,190.585 41.863,190.430 41.708 C 190.377 41.655,190.333 41.690,190.333 41.786 M236.333 42.167 C 236.138 42.442,236.015 42.667,236.061 42.667 C 236.106 42.667,236.304 42.442,236.500 42.167 C 236.696 41.892,236.819 41.667,236.773 41.667 C 236.727 41.667,236.529 41.892,236.333 42.167 M364.406 42.542 L 363.917 43.083 364.458 42.594 C 364.963 42.138,365.077 42.000,364.948 42.000 C 364.919 42.000,364.675 42.244,364.406 42.542 M130.417 42.778 C 130.050 43.107,129.900 43.298,130.083 43.203 C 130.392 43.043,131.313 42.158,131.154 42.174 C 131.115 42.177,130.783 42.450,130.417 42.778 M316.417 42.775 C 315.915 43.223,315.877 43.286,316.265 43.026 C 316.726 42.718,317.305 42.157,317.145 42.173 C 317.111 42.176,316.783 42.447,316.417 42.775 M355.500 42.219 C 355.500 42.248,355.744 42.491,356.042 42.760 L 356.583 43.250 356.094 42.708 C 355.638 42.203,355.500 42.090,355.500 42.219 M154.583 42.771 C 154.284 43.026,154.222 43.127,154.430 43.024 C 154.736 42.872,155.309 42.324,155.145 42.339 C 155.111 42.343,154.858 42.537,154.583 42.771 M308.916 42.974 C 309.098 43.189,309.397 43.441,309.581 43.536 C 309.935 43.717,309.884 43.661,309.085 42.998 C 308.603 42.598,308.597 42.597,308.916 42.974 M270.333 43.083 C 270.104 43.214,269.992 43.322,270.083 43.322 C 270.175 43.322,270.438 43.214,270.667 43.083 C 270.896 42.952,271.008 42.845,270.917 42.845 C 270.825 42.845,270.563 42.952,270.333 43.083 M254.167 43.280 C 254.167 43.369,254.354 43.618,254.583 43.833 C 254.813 44.049,255.000 44.178,255.000 44.121 C 255.000 44.064,254.813 43.815,254.583 43.568 C 254.354 43.320,254.167 43.191,254.167 43.280 M176.808 43.798 C 177.014 44.087,177.268 44.377,177.374 44.442 C 177.479 44.507,177.397 44.324,177.192 44.035 C 176.986 43.746,176.732 43.457,176.626 43.392 C 176.521 43.326,176.603 43.509,176.808 43.798 M193.914 43.792 C 193.754 44.044,193.427 44.475,193.187 44.750 L 192.750 45.250 193.251 44.799 C 193.713 44.384,194.449 43.333,194.279 43.333 C 194.238 43.333,194.074 43.540,193.914 43.792 M304.512 43.796 C 304.615 44.092,304.768 44.376,304.851 44.428 C 304.934 44.479,304.913 44.310,304.803 44.052 C 304.509 43.361,304.294 43.172,304.512 43.796 M108.996 44.162 C 109.190 44.434,109.434 44.709,109.538 44.773 C 109.642 44.838,109.517 44.615,109.260 44.279 C 108.703 43.548,108.493 43.455,108.996 44.162 M235.151 43.958 C 234.723 44.491,234.408 45.115,234.682 44.888 C 234.927 44.684,235.569 43.667,235.452 43.667 C 235.415 43.667,235.280 43.798,235.151 43.958 M113.844 43.917 C 113.844 44.008,113.954 44.229,114.089 44.407 C 114.223 44.585,114.333 44.655,114.333 44.564 C 114.333 44.472,114.223 44.251,114.089 44.074 C 113.954 43.896,113.844 43.825,113.844 43.917 M255.167 44.231 C 255.167 44.276,255.617 44.660,256.167 45.083 C 256.717 45.507,257.167 45.815,257.167 45.769 C 257.167 45.724,256.717 45.340,256.167 44.917 C 255.617 44.493,255.167 44.185,255.167 44.231 M275.901 44.526 L 275.583 44.885 276.042 44.590 C 276.514 44.286,276.604 44.167,276.359 44.167 C 276.282 44.167,276.075 44.328,275.901 44.526 M60.550 45.144 C 61.485 45.589,62.570 46.140,62.961 46.367 L 63.672 46.780 60.878 48.157 C 59.341 48.915,57.446 49.861,56.667 50.260 C 55.887 50.659,54.875 51.169,54.417 51.394 C 53.958 51.619,52.983 52.106,52.250 52.477 C 51.517 52.848,50.542 53.336,50.083 53.562 C 49.625 53.787,48.575 54.312,47.750 54.729 C 46.925 55.145,45.875 55.670,45.417 55.895 C 44.958 56.121,43.908 56.645,43.083 57.059 C 38.821 59.203,39.114 59.100,38.293 58.744 C 36.882 58.132,34.167 56.634,34.244 56.510 C 34.287 56.440,34.659 56.254,35.070 56.097 C 35.481 55.940,36.627 55.377,37.617 54.846 C 38.607 54.315,39.572 53.832,39.763 53.772 C 39.953 53.712,40.928 53.229,41.929 52.700 C 42.931 52.170,44.005 51.632,44.316 51.505 C 44.627 51.377,45.704 50.836,46.710 50.303 C 47.715 49.770,48.579 49.333,48.628 49.333 C 48.678 49.333,49.475 48.946,50.401 48.472 C 54.411 46.418,58.594 44.338,58.716 44.336 C 58.789 44.334,59.614 44.698,60.550 45.144 M143.000 45.083 C 143.405 45.496,143.768 45.833,143.806 45.833 C 143.947 45.833,142.579 44.364,142.424 44.349 C 142.336 44.340,142.595 44.671,143.000 45.083 M392.491 45.125 L 391.917 45.750 392.542 45.176 C 393.123 44.641,393.243 44.500,393.116 44.500 C 393.088 44.500,392.807 44.781,392.491 45.125 M22.292 45.819 C 23.232 46.316,23.968 46.754,23.928 46.794 C 23.888 46.834,22.988 47.296,21.928 47.821 L 20.000 48.775 20.000 46.726 C 20.000 44.839,20.023 44.687,20.292 44.797 C 20.453 44.863,21.353 45.323,22.292 45.819 M132.163 45.042 C 131.989 45.402,131.992 45.404,132.241 45.093 C 132.481 44.794,132.500 44.872,132.500 46.135 L 132.500 47.500 134.542 47.464 L 136.583 47.428 134.625 47.376 L 132.667 47.323 132.667 45.995 C 132.667 44.656,132.502 44.344,132.163 45.042 M178.250 45.310 C 178.617 45.705,179.142 46.184,179.417 46.374 C 180.000 46.778,179.924 46.698,178.583 45.492 C 177.735 44.730,177.685 44.702,178.250 45.310 M352.333 44.769 C 352.333 44.862,352.577 45.158,352.874 45.427 L 353.415 45.917 353.002 45.417 C 352.774 45.142,352.531 44.845,352.461 44.758 C 352.382 44.660,352.333 44.664,352.333 44.769 M156.073 45.708 L 155.583 46.250 156.125 45.760 C 156.423 45.491,156.667 45.248,156.667 45.219 C 156.667 45.090,156.529 45.203,156.073 45.708 M274.120 45.737 C 273.136 46.418,272.902 46.656,273.628 46.238 C 274.187 45.916,275.148 45.176,275.000 45.182 C 274.954 45.184,274.558 45.433,274.120 45.737 M119.833 45.750 C 120.049 45.979,120.253 46.167,120.287 46.167 C 120.425 46.167,119.738 45.343,119.596 45.339 C 119.511 45.336,119.618 45.521,119.833 45.750 M192.026 45.850 C 191.719 46.129,191.499 46.388,191.537 46.426 C 191.575 46.464,191.859 46.234,192.169 45.914 C 192.861 45.200,192.780 45.164,192.026 45.850 M316.833 46.446 L 316.250 47.042 316.875 46.584 C 317.219 46.333,317.500 46.061,317.500 45.980 C 317.500 45.772,317.481 45.785,316.833 46.446 M391.000 46.274 C 390.679 46.507,390.192 46.800,389.917 46.926 C 389.642 47.051,389.530 47.157,389.669 47.160 C 389.913 47.166,391.667 46.071,391.667 45.912 C 391.667 45.795,391.634 45.813,391.000 46.274 M199.810 46.220 C 200.066 46.530,201.156 47.238,201.236 47.144 C 201.264 47.111,200.904 46.827,200.435 46.514 C 199.967 46.200,199.686 46.068,199.810 46.220 M257.667 46.077 C 257.667 46.122,257.967 46.313,258.333 46.500 C 258.700 46.687,259.000 46.803,259.000 46.757 C 259.000 46.711,258.700 46.520,258.333 46.333 C 257.967 46.146,257.667 46.031,257.667 46.077 M378.573 46.150 C 378.624 46.232,378.933 46.457,379.259 46.650 C 379.586 46.843,379.812 46.933,379.761 46.850 C 379.709 46.768,379.400 46.543,379.074 46.350 C 378.747 46.157,378.522 46.067,378.573 46.150 M306.659 46.407 C 306.950 46.758,307.831 47.224,307.960 47.096 C 308.013 47.043,307.979 47.000,307.884 47.000 C 307.790 47.000,307.423 46.803,307.069 46.563 C 306.715 46.323,306.531 46.253,306.659 46.407 M364.350 46.670 C 363.947 46.943,363.685 47.167,363.770 47.167 C 363.946 47.167,365.167 46.360,365.167 46.244 C 365.167 46.122,365.127 46.143,364.350 46.670 M144.667 46.579 C 144.667 46.676,145.600 47.167,145.783 47.166 C 145.857 47.166,145.671 47.016,145.371 46.833 C 144.813 46.492,144.667 46.440,144.667 46.579 M190.667 46.833 C 190.346 47.009,190.143 47.156,190.217 47.160 C 190.393 47.169,191.333 46.680,191.333 46.579 C 191.333 46.470,191.324 46.474,190.667 46.833 M209.624 46.819 C 208.939 47.258,208.844 47.413,209.448 47.106 C 209.740 46.957,210.026 46.760,210.083 46.668 C 210.216 46.452,210.176 46.465,209.624 46.819 M242.498 46.958 L 242.856 47.500 245.220 47.463 L 247.583 47.427 245.252 47.375 C 242.951 47.324,242.916 47.318,242.530 46.870 L 242.139 46.417 242.498 46.958 M354.643 46.835 C 354.860 47.017,355.104 47.167,355.185 47.167 C 355.470 47.167,355.329 47.022,354.792 46.764 L 354.250 46.504 354.643 46.835 M180.333 46.917 C 180.563 47.048,180.825 47.155,180.917 47.155 C 181.008 47.155,180.896 47.048,180.667 46.917 C 180.438 46.786,180.175 46.678,180.083 46.678 C 179.992 46.678,180.104 46.786,180.333 46.917 M233.112 47.009 C 232.887 47.331,232.735 47.348,230.519 47.301 C 229.225 47.273,228.166 47.306,228.166 47.375 C 228.167 47.774,232.963 47.498,233.235 47.083 C 233.562 46.584,233.455 46.520,233.112 47.009 M115.925 47.042 C 116.027 47.310,115.841 47.336,113.559 47.370 L 111.083 47.407 113.487 47.458 C 115.909 47.510,116.468 47.400,116.023 46.958 C 115.855 46.791,115.836 46.808,115.925 47.042 M129.667 47.167 C 129.346 47.342,129.143 47.489,129.217 47.493 C 129.393 47.502,130.333 47.013,130.333 46.912 C 130.333 46.803,130.324 46.807,129.667 47.167 M212.965 47.457 C 213.541 47.490,214.441 47.489,214.965 47.456 C 215.488 47.423,215.017 47.397,213.917 47.397 C 212.817 47.397,212.388 47.424,212.965 47.457 M282.792 47.457 C 283.365 47.489,284.302 47.489,284.875 47.457 C 285.448 47.424,284.979 47.398,283.833 47.398 C 282.688 47.398,282.219 47.424,282.792 47.457 M297.215 47.457 C 297.838 47.489,298.813 47.489,299.382 47.457 C 299.951 47.424,299.442 47.398,298.250 47.398 C 297.058 47.398,296.593 47.425,297.215 47.457 M319.458 47.457 C 320.031 47.489,320.969 47.489,321.542 47.457 C 322.115 47.424,321.646 47.398,320.500 47.398 C 319.354 47.398,318.885 47.424,319.458 47.457 M328.382 47.457 C 329.004 47.489,329.979 47.489,330.549 47.457 C 331.118 47.424,330.608 47.398,329.417 47.398 C 328.225 47.398,327.759 47.425,328.382 47.457 M16.543 49.558 C 17.585 49.964,17.588 49.959,15.708 50.945 C 13.129 52.299,13.333 52.378,13.333 50.015 L 13.333 48.008 14.543 48.629 C 15.208 48.971,16.108 49.389,16.543 49.558 M125.455 48.120 C 125.750 48.157,126.275 48.158,126.621 48.122 C 126.967 48.086,126.725 48.055,126.083 48.055 C 125.442 48.054,125.159 48.083,125.455 48.120 M149.877 48.120 C 150.131 48.158,150.506 48.157,150.711 48.117 C 150.916 48.078,150.708 48.046,150.250 48.048 C 149.792 48.049,149.624 48.081,149.877 48.120 M264.621 48.120 C 264.917 48.157,265.442 48.158,265.788 48.122 C 266.134 48.086,265.892 48.055,265.250 48.055 C 264.608 48.054,264.325 48.083,264.621 48.120 M311.455 48.120 C 311.750 48.157,312.275 48.158,312.621 48.122 C 312.967 48.086,312.725 48.055,312.083 48.055 C 311.442 48.054,311.159 48.083,311.455 48.120 M370.040 49.767 C 369.929 50.295,369.866 50.755,369.900 50.789 C 369.996 50.885,370.373 49.201,370.303 48.991 C 370.269 48.890,370.150 49.239,370.040 49.767 M353.083 49.756 C 352.808 49.882,352.696 49.986,352.833 49.987 C 352.971 49.987,353.271 49.881,353.500 49.750 C 354.027 49.449,353.745 49.453,353.083 49.756 M359.708 53.448 C 359.869 53.490,360.131 53.490,360.292 53.448 C 360.452 53.406,360.321 53.372,360.000 53.372 C 359.679 53.372,359.548 53.406,359.708 53.448 M367.625 54.201 C 366.938 54.965,366.802 55.231,367.351 54.734 C 367.691 54.427,368.410 53.497,368.303 53.503 C 368.274 53.505,367.969 53.819,367.625 54.201 M352.167 53.983 C 352.167 54.138,353.148 55.083,353.210 54.988 C 353.235 54.949,353.011 54.679,352.711 54.389 C 352.412 54.099,352.167 53.916,352.167 53.983 " stroke="none" fill="#000000" fill-rule="evenodd"></path><path id="path2" d="" stroke="none" fill="#000000" fill-rule="evenodd"></path><path id="path3" d="" stroke="none" fill="#000000" fill-rule="evenodd"></path><path id="path4" d="" stroke="none" fill="#000000" fill-rule="evenodd"></path><path id="path5" d="" stroke="none" fill="#000000" fill-rule="evenodd"></path><path id="path6" d="" stroke="none" fill="#000000" fill-rule="evenodd"></path><path id="path7" d="" stroke="none" fill="#000000" fill-rule="evenodd"></path><path id="path8" d="" stroke="none" fill="#000000" fill-rule="evenodd"></path></g></svg>