<svg xmlns="http://www.w3.org/2000/svg" viewBox="0 0 77.81 77.25"><defs><style>.cls-1{fill:#f89b64;}.cls-2{fill:#c9204a;}.cls-3{fill:#e01a77;}.cls-4{fill:#e95d44;}.cls-5{fill:#e7482f;}.cls-6{fill:#c42127;}</style></defs><title>Asset 10</title><g id="Layer_2" data-name="Layer 2"><g id="Layer_1-2" data-name="Layer 1"><path class="cls-1" d="M47,77H77.81V60.87c-.41-3.4-.81-6.79-1.22-10.18l-20.07-.55q-1.2,4.47-2.41,8.94l15-.66.42,9.2-24.89,0,1.87-42.4,22.5.07q.14,4.11.25,8.22l-14.92,1c.6,2.08,1.21,4.16,1.81,6.24l11.31.73,9.31,1.35c.18-3.81.36-7.63.53-11.44V16.24l-40.46.09q-1.76,30.45-3.5,60.92Z"/><path class="cls-2" d="M18.36,18.56V41H30.09c-.1-2.78-.19-5.55-.29-8.33l-4.63.08V25.17H46.49l22.5.07q.14,4.11.25,8.22l-14.92,1c.6,2.08,1.21,4.16,1.81,6.24l11.31.73,9.31,1.35c.25-3.68.43-7.5.53-11.44.14-5.25.13-10.29,0-15.1H18.36Z"/><path class="cls-3" d="M41.14.3H3.07Q1.54,11.67,0,23H11.08V9.34l26.44-.62Q36.26,28.31,35,47.9L11.77,50.29V39.5L.7,40.05q1.83,9.57,3.64,19.14l40.61,1L47.74,0Z"/><path class="cls-4" d="M34.36,59.9,45,60.23q.77-17.52,1.54-35l-10.08.08Q35.39,42.59,34.36,59.9Z"/><path class="cls-5" d="M37.1,16.19l9.89,0-.5,9-10.08.08Z"/><path class="cls-6" d="M46.49,25.18l22.5.07q.14,4.11.25,8.22l-14.92,1c.6,2.08,1.21,4.16,1.81,6.24l11.31.73,9.31,1.35c.25-3.68.43-7.5.53-11.44.14-5.25.13-10.29,0-15.1L47,16.22C46.82,19.21,46.65,22.19,46.49,25.18Z"/></g></g></svg>